<svg xmlns="http://www.w3.org/2000/svg" viewBox="0 0 512 512" width="512" height="512">
  <defs>
    <filter id="clothShadow" x="-10%" y="-10%" width="130%" height="130%">
      <feDropShadow dx="0" dy="5" stdDeviation="4" flood-color="#000" flood-opacity="0.3"/>
    </filter>
  </defs>
  <!-- CAPA 1: ROPA (Z-INDEX 20) - ROMA -->
  <g id="clothes-roman" filter="url(#clothShadow)">
    <!-- Capa imperial roja lateral/trasera -->
    <path d="M 195 240 L 160 380 Q 170 410 200 405 L 205 320 Z" 
          fill="#DC2626" stroke="#991B1B" stroke-width="3"/>
    <!-- Armadura Lorica Segmentata (Placas metálicas) -->
    <path d="M 190 250 L 322 250 L 335 345 L 177 345 Z" 
          fill="#94A3B8" stroke="#475569" stroke-width="4"/>
    <!-- Bandas/Placas horizontales con remaches -->
    <path d="M 185 275 L 327 275" stroke="#334155" stroke-width="3"/>
    <path d="M 180 300 L 332 300" stroke="#334155" stroke-width="3"/>
    <path d="M 178 325 L 334 325" stroke="#334155" stroke-width="3"/>
    <circle cx="210" cy="262" r="3" fill="#F8FAFC"/>
    <circle cx="302" cy="262" r="3" fill="#F8FAFC"/>
    <circle cx="210" cy="287" r="3" fill="#F8FAFC"/>
    <circle cx="302" cy="287" r="3" fill="#F8FAFC"/>
    <!-- Medallón Águila / Sol dorado central -->
    <circle cx="256" cy="285" r="14" fill="#F59E0B" stroke="#B45309" stroke-width="2"/>
    <polygon points="256,275 259,282 266,285 259,288 256,295 253,288 246,285 253,282" fill="#FEF3C7"/>
    <!-- Pteruges (Tiras de cuero militar con tachuelas) -->
    <g fill="#78350F" stroke="#451A03" stroke-width="2">
      <rect x="195" y="345" width="16" height="50" rx="3"/>
      <rect x="220" y="345" width="16" height="55" rx="3"/>
      <rect x="248" y="345" width="16" height="58" rx="3"/>
      <rect x="276" y="345" width="16" height="55" rx="3"/>
      <rect x="301" y="345" width="16" height="50" rx="3"/>
    </g>
    <!-- Tachuelas de bronce en pteruges -->
    <circle cx="203" cy="385" r="3" fill="#F59E0B"/>
    <circle cx="228" cy="390" r="3" fill="#F59E0B"/>
    <circle cx="256" cy="393" r="3" fill="#F59E0B"/>
    <circle cx="284" cy="390" r="3" fill="#F59E0B"/>
    <circle cx="309" cy="385" r="3" fill="#F59E0B"/>
  </g>
</svg>