<svg xmlns="http://www.w3.org/2000/svg" viewBox="0 0 512 512" width="512" height="512">
  <defs>
    <filter id="headShadow" x="-10%" y="-10%" width="130%" height="130%">
      <feDropShadow dx="0" dy="6" stdDeviation="4" flood-color="#000" flood-opacity="0.4"/>
    </filter>
  </defs>
  <!-- CAPA 3: SOMBRERO / CABEZA (Z-INDEX 40) - MEDIEVAL -->
  <g id="head-medieval" filter="url(#headShadow)">
    <!-- Penacho de plumas de torneo ondeante (y=25 a y=80) -->
    <path d="M 256 60 C 270 20, 310 15, 330 30 C 300 40, 280 50, 265 65 Z" 
          fill="#DC2626" stroke="#991B1B" stroke-width="2"/>
    <path d="M 256 60 C 240 25, 205 20, 185 35 C 215 45, 235 52, 247 65 Z" 
          fill="#1D4ED8" stroke="#1E3A8A" stroke-width="2"/>
    <!-- Bóveda y corona del yelmo de acero pulido -->
    <path d="M 175 140 C 172 58, 340 58, 337 140 C 305 125, 207 125, 175 140 Z" 
          fill="#94A3B8" stroke="#475569" stroke-width="4"/>
    <!-- Cruz de refuerzo de latón dorado sobre el frontal -->
    <path d="M 250 65 L 262 65 L 262 142 L 250 142 Z" fill="#FBBF24" stroke="#B45309" stroke-width="1.5"/>
    <path d="M 190 120 L 322 120 L 322 134 L 190 134 Z" fill="#FBBF24" stroke="#B45309" stroke-width="1.5"/>
    <!-- Ranuras oculares estrechas de combate (Visor slit) -->
    <rect x="200" y="123" width="45" height="6" rx="2" fill="#0F172A"/>
    <rect x="267" y="123" width="45" height="6" rx="2" fill="#0F172A"/>
    <!-- Agujeros de ventilación / Respiraderos en cruz -->
    <circle cx="225" cy="140" r="2" fill="#334155"/>
    <circle cx="235" cy="140" r="2" fill="#334155"/>
    <circle cx="277" cy="140" r="2" fill="#334155"/>
    <circle cx="287" cy="140" r="2" fill="#334155"/>
  </g>
</svg>